# xmcd
#
# Track frame offsets:
# 150
# 3225
# 15877
# 34700
# 54777
# 57987
# 80787
# 101850
# 119127
# 142495
# 160622
# 164117
# 181642
# 203245
#
# Disc length: 2974 seconds
#
# Revision: 1
# Processed by: cddbd v1.5.1PL0 Copyright (c) Steve Scherf et al.
# Submitted via: Easy CD Ripper v2.35
#
DISCID=bb0b9c0e
DTITLE=702 - 702
DYEAR=1999
DGENRE=Soul
TTITLE0="7" Interlude - 702
TTITLE1=Where My Girls at - 702
TTITLE2=You don't Know - 702
TTITLE3=Make Time - 702
TTITLE4="0" Interlude - 702
TTITLE5=You'll Jsy Never Know - 702
TTITLE6=Finally - 702
TTITLE7=Tell Your Girl - 702
TTITLE8=Gotta Leave - 702
TTITLE9=Don't Go Braking my heart - 702
TTITLE10="2" Interlude - 702
TTITLE11=What more can he do - 702
TTITLE12=Seven - 702
TTITLE13=Will you be ok - 702
EXTD=
EXTT0=
EXTT1=
EXTT2=
EXTT3=
EXTT4=
EXTT5=
EXTT6=
EXTT7=
EXTT8=
EXTT9=
EXTT10=
EXTT11=
EXTT12=
EXTT13=
PLAYORDER=
